<?xml version="1.0" encoding="UTF-8"?>
<svg version="1.1" xmlns="http://www.w3.org/2000/svg" width="512" height="512">
<path d="M0 0 C1.35182373 0.31348389 1.35182373 0.31348389 2.73095703 0.63330078 C20.1918615 4.83259955 37.02942608 11.58231416 52.40625 20.8828125 C55.60240108 22.25946794 56.73407958 22.13447762 60 21 C62.39328786 19.85884848 64.72334648 18.67931619 67.0625 17.4375 C83.3465702 9.10057073 100.17999061 3.11307967 118 -1 C118.74991211 -1.17934082 119.49982422 -1.35868164 120.27246094 -1.54345703 C146.18896395 -7.45063642 177.31328894 -6.03658526 203 0 C203.90121582 0.20898926 204.80243164 0.41797852 205.73095703 0.63330078 C226.94075696 5.73419844 262.57888379 16.55462858 275.72265625 35.48046875 C277.84079967 39.65845807 278.12616763 43.1613371 278.13422108 47.82660294 C278.13867892 49.02443822 278.14313676 50.22227351 278.14772969 51.45640683 C278.14745315 53.43263724 278.14745315 53.43263724 278.14717102 55.4487915 C278.15047075 56.86134974 278.15419654 58.27390703 278.1583125 59.68646312 C278.16832803 63.57272206 278.17204856 67.45896556 278.17470181 71.34523559 C278.17860611 75.53486649 278.18818427 79.72448518 278.19691467 83.91410828 C278.21667407 94.03343865 278.22674399 104.15277003 278.23564246 114.27211487 C278.24002565 119.03688696 278.24539233 123.80165793 278.25063133 128.56642914 C278.26764201 144.40393976 278.28213689 160.24144969 278.28938007 176.07896805 C278.29128998 180.18855032 278.29321031 184.29813259 278.29516602 188.40771484 C278.29564976 189.42913522 278.2961335 190.4505556 278.2966319 191.50292811 C278.3049349 208.05484486 278.33027711 224.6066894 278.36274669 241.15857461 C278.39580626 258.14960779 278.41382778 275.14060425 278.41702431 292.13166976 C278.41919028 301.67256508 278.42795175 311.21335506 278.45348549 320.75421906 C278.47517729 328.87827451 278.48325035 337.00219903 278.47351871 345.12628016 C278.46896978 349.2710968 278.47089458 353.41564321 278.49028015 357.5604229 C278.50788228 361.35667052 278.50693843 365.15245016 278.49138286 368.94870254 C278.48787664 370.96869594 278.50405499 372.98869408 278.52098733 375.00861955 C278.47025939 382.15156645 277.91470293 386.95571533 274 393 C269.80965746 397.08289786 266.10766151 398.78566154 260.3125 399.375 C254.38427383 399.17775772 249.41714287 396.59336693 244.1171875 394.12207031 C195.15957333 371.29535002 140.40700225 368.8193578 89.44824219 386.75830078 C81.9886648 389.48732058 74.75233094 392.66147523 67.64379883 396.20605469 C61.76623537 399.0382841 57.16713539 400.05920498 50.6640625 398.40625 C49.99117187 398.1071875 49.31828125 397.808125 48.625 397.5 C47.779375 397.13648438 46.93375 396.77296875 46.0625 396.3984375 C44.41176564 395.64465829 42.76187044 394.88896344 41.1171875 394.12207031 C-7.09214527 371.64423978 -62.33602991 368.34943576 -112.6328125 386.3203125 C-118.87701865 388.66082594 -124.95646649 391.38029679 -131.01171875 394.16796875 C-132.3409776 394.77901193 -133.6703988 395.38970211 -135 396 C-135.63760254 396.29422852 -136.27520508 396.58845703 -136.93212891 396.89160156 C-143.06184906 399.63800289 -147.22762401 399.81259296 -153.625 397.9375 C-158.21547821 395.30222547 -161.61978431 391.76043137 -164 387 C-164.09823502 385.11396631 -164.13101362 383.22440679 -164.13422108 381.33581924 C-164.13867892 380.12331568 -164.14313676 378.91081212 -164.14772969 377.66156602 C-164.14764039 376.30385732 -164.14745052 374.94614862 -164.14717102 373.58843994 C-164.15046871 372.15555844 -164.15419407 370.72267787 -164.1583125 369.2897985 C-164.16835149 365.33815179 -164.17205234 361.38652027 -164.17470181 357.43486261 C-164.17859925 353.17843127 -164.18817796 348.92201202 -164.19691467 344.66558838 C-164.21669495 334.3793213 -164.22674726 324.09305322 -164.23564246 313.80677187 C-164.2400228 308.96602668 -164.24539026 304.12528259 -164.25063133 299.28453827 C-164.26764516 283.19833223 -164.28214014 267.11212689 -164.28938007 251.02591324 C-164.29129005 246.84963225 -164.29321037 242.67335128 -164.29516602 238.49707031 C-164.29564976 237.45904124 -164.2961335 236.42101216 -164.2966319 235.35152766 C-164.30493519 218.52977234 -164.33027646 201.70808806 -164.36274669 184.88636377 C-164.39579184 167.62646064 -164.41382653 150.36659364 -164.41702431 133.1066587 C-164.41919177 123.411538 -164.4279748 113.71652089 -164.45348549 104.02143097 C-164.47515776 95.76588431 -164.48326007 87.5104664 -164.47351871 79.25489452 C-164.46896389 75.04148224 -164.47092849 70.8283358 -164.49028015 66.61495972 C-164.50784077 62.75829197 -164.50697241 58.90208539 -164.49138286 55.04541323 C-164.48899592 53.64967678 -164.49338642 52.253909 -164.50521151 50.85822061 C-164.57373747 42.23672215 -164.34375023 37.62747265 -158.40771484 31.30371094 C-138.04642599 14.21262598 -110.59167086 4.76887771 -85 -1 C-83.8860083 -1.26466064 -83.8860083 -1.26466064 -82.74951172 -1.53466797 C-56.82472108 -7.44877915 -25.6969223 -6.03898498 0 0 Z M-79 35 C-80.08716309 35.24145752 -80.08716309 35.24145752 -81.19628906 35.48779297 C-90.48113823 37.61582643 -99.2339145 40.72368935 -108 44.4375 C-109.27206299 44.97624756 -109.27206299 44.97624756 -110.56982422 45.52587891 C-112.17888419 46.23285667 -113.77694349 46.96568877 -115.35995257 47.72921598 C-117.09757411 48.56561826 -118.85382887 49.36452576 -120.62740076 50.12171805 C-125.92554829 52.6823891 -125.92554829 52.6823891 -128.9148953 57.50619388 C-129.26642075 60.72096445 -129.28501258 63.80149421 -129.20254517 67.03475952 C-129.21108941 68.25678467 -129.21963366 69.47880983 -129.22843683 70.73786604 C-129.24205479 74.1241441 -129.21086744 77.50462843 -129.16065621 80.89020467 C-129.11743241 84.54248243 -129.13208779 88.19458428 -129.13967896 91.8470459 C-129.1449203 98.17271632 -129.11357228 104.49735458 -129.05730057 110.82276535 C-128.975996 119.96803693 -128.94998306 129.11280991 -128.93742065 138.25840373 C-128.91553931 153.09654293 -128.8490044 167.93413209 -128.75439453 182.77197266 C-128.66259087 197.18470509 -128.59181356 211.59728808 -128.54931641 226.01025391 C-128.54668917 226.89880225 -128.54406194 227.78735059 -128.54135509 228.70282464 C-128.52830462 233.16045312 -128.51566757 237.61808267 -128.50323606 242.07571292 C-128.39958437 279.05086364 -128.2234672 316.02538898 -128 353 C-127.33920346 352.79688863 -126.67840693 352.59377726 -125.99758625 352.38451099 C-122.97528124 351.4566952 -119.95212872 350.53167079 -116.92895508 349.60668945 C-115.88946968 349.28712532 -114.84998428 348.96756119 -113.77899933 348.63831329 C-106.79248239 346.50351777 -99.8628658 344.58212829 -92.6875 343.1875 C-91.18268066 342.89033081 -91.18268066 342.89033081 -89.64746094 342.5871582 C-86.76866259 342.03433882 -83.88678404 341.50927774 -81 341 C-80.26668457 340.86722656 -79.53336914 340.73445313 -78.77783203 340.59765625 C-39.22823603 333.80409477 1.30927732 341.22164916 39 353 C39 254.66 39 156.32 39 55 C11.49999911 40.52631532 -13.60457938 31.54805127 -44.6875 31.6875 C-45.99750977 31.69241455 -47.30751953 31.6973291 -48.65722656 31.70239258 C-59.02901516 31.82696136 -68.89411723 32.6797483 -79 35 Z M124 35 C122.91283691 35.24145752 122.91283691 35.24145752 121.80371094 35.48779297 C112.51886177 37.61582643 103.7660855 40.72368935 95 44.4375 C93.72793701 44.97624756 93.72793701 44.97624756 92.43017578 45.52587891 C90.82111581 46.23285667 89.22305651 46.96568877 87.64004743 47.72921598 C85.90242589 48.56561826 84.14617113 49.36452576 82.37259924 50.12171805 C77.07445171 52.6823891 77.07445171 52.6823891 74.0851047 57.50619388 C73.73357925 60.72096445 73.71498742 63.80149421 73.79745483 67.03475952 C73.78891059 68.25678467 73.78036634 69.47880983 73.77156317 70.73786604 C73.75794521 74.1241441 73.78913256 77.50462843 73.83934379 80.89020467 C73.88256759 84.54248243 73.86791221 88.19458428 73.86032104 91.8470459 C73.8550797 98.17271632 73.88642772 104.49735458 73.94269943 110.82276535 C74.024004 119.96803693 74.05001694 129.11280991 74.06257935 138.25840373 C74.08446069 153.09654293 74.1509956 167.93413209 74.24560547 182.77197266 C74.33740913 197.18470509 74.40818644 211.59728808 74.45068359 226.01025391 C74.45331083 226.89880225 74.45593806 227.78735059 74.45864491 228.70282464 C74.47169538 233.16045312 74.48433243 237.61808267 74.49676394 242.07571292 C74.60041563 279.05086364 74.7765328 316.02538898 75 353 C75.66079654 352.79688863 76.32159307 352.59377726 77.00241375 352.38451099 C80.02471876 351.4566952 83.04787128 350.53167079 86.07104492 349.60668945 C87.11053032 349.28712532 88.15001572 348.96756119 89.22100067 348.63831329 C96.20751761 346.50351777 103.1371342 344.58212829 110.3125 343.1875 C111.81731934 342.89033081 111.81731934 342.89033081 113.35253906 342.5871582 C116.23133741 342.03433882 119.11321596 341.50927774 122 341 C122.73331543 340.86722656 123.46663086 340.73445313 124.22216797 340.59765625 C163.77176397 333.80409477 204.30927732 341.22164916 242 353 C242 254.66 242 156.32 242 55 C214.49999911 40.52631532 189.39542062 31.54805127 158.3125 31.6875 C157.00249023 31.69241455 155.69248047 31.6973291 154.34277344 31.70239258 C143.97098484 31.82696136 134.10588277 32.6797483 124 35 Z " fill="#000000" transform="translate(199,59)"/>
</svg>
