<?xml version="1.0" encoding="UTF-8"?>
<svg version="1.1" xmlns="http://www.w3.org/2000/svg" width="512" height="512">
<path d="M0 0 C0.97598145 0.20399414 1.95196289 0.40798828 2.95751953 0.61816406 C32.78169025 6.92738817 61.05431244 18.27000719 86 36 C87.05960937 36.74765625 88.11921875 37.4953125 89.2109375 38.265625 C106.23259954 50.68563037 122.24931105 65.17676658 135 82 C135.73234863 82.9583374 135.73234863 82.9583374 136.47949219 83.93603516 C144.70728027 94.76720543 151.82457112 105.88065352 158 118 C158.53898926 119.05719238 158.53898926 119.05719238 159.08886719 120.13574219 C168.5814038 139.00707995 174.68201764 158.3412171 179 179 C179.18079102 179.82000488 179.36158203 180.64000977 179.54785156 181.48486328 C184.96936103 206.87326397 184.54137771 237.68232863 179 263 C178.70996094 264.4240918 178.70996094 264.4240918 178.4140625 265.87695312 C167.82791163 317.33740874 139.19151225 366.02214914 97 398 C96.3611084 398.48823242 95.7222168 398.97646484 95.06396484 399.47949219 C84.23279457 407.70728027 73.11934648 414.82457112 61 421 C59.94280762 421.53898926 59.94280762 421.53898926 58.86425781 422.08886719 C39.99292005 431.5814038 20.6587829 437.68201764 0 442 C-0.82000488 442.18079102 -1.64000977 442.36158203 -2.48486328 442.54785156 C-27.8891001 447.97274272 -58.66471601 447.51972463 -84 442 C-84.93875977 441.81195801 -85.87751953 441.62391602 -86.84472656 441.43017578 C-116.36450242 435.46644093 -145.59744568 423.89032843 -170 406 C-170.95261719 405.31808594 -171.90523438 404.63617188 -172.88671875 403.93359375 C-220.24976433 369.32451861 -251.03590561 320.24053691 -263 263 C-263.18079102 262.17999512 -263.36158203 261.35999023 -263.54785156 260.51513672 C-268.96936103 235.12673603 -268.54137771 204.31767137 -263 179 C-262.70996094 177.5759082 -262.70996094 177.5759082 -262.4140625 176.12304688 C-249.89299516 115.25674733 -213.59422028 64.81518397 -162.109375 30.74902344 C-138.1634805 15.24926238 -111.77814244 5.80603076 -84 0 C-83.17999512 -0.18079102 -82.35999023 -0.36158203 -81.51513672 -0.54785156 C-56.15189605 -5.96398829 -25.2896691 -5.57575334 0 0 Z M-101.4375 47.0625 C-121.97095214 67.69791466 -134.73734099 94.80056502 -143.9375 122.0625 C-144.31535645 123.18011719 -144.69321289 124.29773438 -145.08251953 125.44921875 C-145.43556152 126.52945313 -145.78860352 127.6096875 -146.15234375 128.72265625 C-146.46163818 129.66890869 -146.77093262 130.61516113 -147.08959961 131.59008789 C-148.35363605 136.32454673 -149.12340863 141.17874745 -150 146 C-117.99 146 -85.98 146 -53 146 C-53 104.42 -53 62.84 -53 20 C-71.17626985 20 -89.22805987 35.16297126 -101.4375 47.0625 Z M-31 20 C-31 61.58 -31 103.16 -31 146 C1.01 146 33.02 146 66 146 C64.38118987 137.09654429 62.40488655 129.24591862 59.5625 120.75 C59.34446716 120.09792572 59.12643433 119.44585144 58.90179443 118.77401733 C50.41122957 93.57189493 38.28636629 69.5396375 20 50 C19.26499268 49.20940186 19.26499268 49.20940186 18.51513672 48.40283203 C6.03678719 35.11425215 -9.20199902 24.74613359 -27 20 C-28.32 20 -29.64 20 -31 20 Z M-131.1875 39.4375 C-131.9000293 39.79658447 -132.61255859 40.15566895 -133.34667969 40.52563477 C-145.32294283 46.64727655 -156.48326893 53.58383294 -167 62 C-167.51240234 62.40943848 -168.02480469 62.81887695 -168.55273438 63.24072266 C-194.04482094 83.77078868 -217.6618381 111.8342987 -229 143 C-229 143.99 -229 144.98 -229 146 C-210.52 146 -192.04 146 -173 146 C-170.69 137.42 -168.38 128.84 -166 120 C-156.9468645 92.84059349 -145.62279387 67.33341351 -128.0078125 44.6484375 C-125.87427072 41.83415476 -123.9323653 38.9548725 -122 36 C-125.37828265 36 -128.22145786 37.94232302 -131.1875 39.4375 Z M38 36 C40.56683336 39.92506806 43.24661916 43.6681553 46.125 47.375 C61.36238846 67.57876549 72.13192559 90.2359235 80.0625 114.1875 C80.28638397 114.86207245 80.51026794 115.5366449 80.74093628 116.23165894 C83.97091847 126.05328236 86.48700131 135.94800522 89 146 C107.48 146 125.96 146 145 146 C144.06453517 141.32267585 142.58149269 137.73849329 140.4375 133.5625 C140.07962402 132.85947754 139.72174805 132.15645508 139.35302734 131.43212891 C119.37508131 92.53507674 84.4635031 51.34845559 41.5 36.9375 C40.345 36.628125 39.19 36.31875 38 36 Z M-237 168 C-246.51481047 203.68053926 -246.5206555 238.29754189 -237 274 C-217.2 274 -197.4 274 -177 274 C-177.495 269.58625 -177.99 265.1725 -178.5 260.625 C-181.58093153 229.62985071 -180.46575283 198.90296274 -177 168 C-196.8 168 -216.6 168 -237 168 Z M-155 168 C-159.67888294 203.87143587 -160.50907282 238.19102664 -155 274 C-121.34 274 -87.68 274 -53 274 C-53 239.02 -53 204.04 -53 168 C-86.66 168 -120.32 168 -155 168 Z M-31 168 C-31 202.98 -31 237.96 -31 274 C2.66 274 36.32 274 71 274 C75.67888294 238.12856413 76.50907282 203.80897336 71 168 C37.34 168 3.68 168 -31 168 Z M93 168 C93.495 172.41375 93.99 176.8275 94.5 181.375 C97.58093153 212.37014929 96.46575283 243.09703726 93 274 C112.8 274 132.6 274 153 274 C162.49584756 238.39057167 162.49584756 203.60942833 153 168 C133.2 168 113.4 168 93 168 Z M-229 296 C-228.06453517 300.67732415 -226.58149269 304.26150671 -224.4375 308.4375 C-224.07962402 309.14052246 -223.72174805 309.84354492 -223.35302734 310.56787109 C-209.31443317 337.9010078 -190.53688653 362.23061533 -166 381 C-164.989375 381.77730469 -163.97875 382.55460937 -162.9375 383.35546875 C-155.99096517 388.56510923 -148.70107197 393.09097448 -141.1875 397.4375 C-140.31625488 397.94579346 -139.44500977 398.45408691 -138.54736328 398.9777832 C-133.18495042 402.01906796 -127.92942077 404.30395377 -122 406 C-124.56683336 402.07493194 -127.24661916 398.3318447 -130.125 394.625 C-145.36238846 374.42123451 -156.13192559 351.7640765 -164.0625 327.8125 C-164.39832596 326.80064133 -164.39832596 326.80064133 -164.74093628 325.76834106 C-167.97091847 315.94671764 -170.48700131 306.05199478 -173 296 C-191.48 296 -209.96 296 -229 296 Z M-150 296 C-148.4609146 304.83489396 -148.4609146 304.83489396 -146.15234375 313.27734375 C-145.79930176 314.35757812 -145.44625977 315.4378125 -145.08251953 316.55078125 C-144.70466309 317.66839844 -144.32680664 318.78601563 -143.9375 319.9375 C-143.53901855 321.11828125 -143.14053711 322.2990625 -142.72998047 323.515625 C-129.83602486 360.95525071 -108.50713644 398.14972512 -71.91162109 416.28491211 C-65.90883736 419.15895052 -59.75231125 422 -53 422 C-53 380.42 -53 338.84 -53 296 C-85.01 296 -117.02 296 -150 296 Z M-31 296 C-31 337.58 -31 379.16 -31 422 C-20.85713771 420.16617336 -20.85713771 420.16617336 -11.875 416.25 C-11.18905762 415.89220459 -10.50311523 415.53440918 -9.79638672 415.16577148 C-0.40817621 410.19600009 7.27944704 404.30454852 15 397 C15.74121094 396.32324219 16.48242188 395.64648438 17.24609375 394.94921875 C42.84798167 370.71641575 61.07510036 330.47429745 66 296 C33.99 296 1.98 296 -31 296 Z M89 296 C86.69 304.58 84.38 313.16 82 322 C71.91792114 352.24623659 58.7462267 380.56883072 38 405 C38.66 405.33 39.32 405.66 40 406 C42.4732275 404.957036 44.80754787 403.85371299 47.1875 402.625 C47.9000293 402.26140381 48.61255859 401.89780762 49.34667969 401.52319336 C75.84042437 387.81721308 99.82083798 368.76529884 118 345 C118.77730469 343.989375 119.55460937 342.97875 120.35546875 341.9375 C125.53362726 335.03225198 130.01536232 327.79484039 134.3125 320.3125 C134.80403564 319.4580127 135.29557129 318.60352539 135.80200195 317.72314453 C142.20642374 307.40476502 142.20642374 307.40476502 145 296 C126.52 296 108.04 296 89 296 Z " fill="#000000" transform="translate(298,35)"/>
</svg>
