<?xml version="1.0" standalone="no"?>
<!DOCTYPE svg PUBLIC "-//W3C//DTD SVG 20010904//EN"
 "http://www.w3.org/TR/2001/REC-SVG-20010904/DTD/svg10.dtd">
<svg version="1.0" xmlns="http://www.w3.org/2000/svg"
 width="512.000000pt" height="512.000000pt" viewBox="0 0 512.000000 512.000000"
 preserveAspectRatio="xMidYMid meet">

<g transform="translate(0.000000,512.000000) scale(0.100000,-0.100000)"
fill="#000000" stroke="none">
<path d="M2405 5108 c-446 -45 -867 -319 -1150 -748 -67 -102 -176 -317 -211
-417 l-18 -53 -47 0 c-135 0 -319 -55 -435 -130 -125 -82 -221 -222 -243 -355
-5 -33 -76 -687 -157 -1453 -140 -1317 -147 -1397 -136 -1464 19 -111 63 -191
151 -278 88 -86 172 -135 306 -177 l90 -28 2005 0 2005 0 90 28 c134 42 218
91 306 177 88 87 132 167 151 278 11 67 4 147 -136 1464 -81 766 -152 1420
-157 1453 -22 133 -118 273 -243 355 -116 75 -300 130 -435 130 l-47 0 -18 53
c-10 28 -47 111 -81 183 -202 425 -527 739 -925 897 -98 39 -252 74 -374 86
-123 12 -163 12 -291 -1z m321 -419 c358 -63 670 -314 876 -705 l50 -94 -1092
0 -1092 0 50 94 c202 383 500 628 852 701 80 16 275 19 356 4z m1038 -1276 c3
-27 8 -93 12 -148 7 -121 17 -156 57 -201 91 -105 258 -100 333 8 29 41 29 43
29 182 0 78 -4 156 -8 175 l-7 34 41 -7 c75 -12 169 -79 169 -120 0 -7 65
-627 145 -1377 80 -750 145 -1378 145 -1395 0 -24 -9 -40 -39 -67 -80 -72 70
-67 -2088 -67 -2168 0 -2010 -5 -2085 70 -28 28 -38 46 -38 70 0 18 65 645
145 1393 80 748 145 1364 145 1369 0 27 111 98 176 112 l30 7 -7 -58 c-12 -99
-10 -241 5 -276 7 -18 28 -48 47 -66 89 -89 232 -84 316 13 40 45 50 80 57
201 4 55 9 121 12 148 l7 47 1197 0 1197 0 7 -47z"/>
</g>
</svg>
