<?xml version="1.0" standalone="no"?>
<!DOCTYPE svg PUBLIC "-//W3C//DTD SVG 20010904//EN"
 "http://www.w3.org/TR/2001/REC-SVG-20010904/DTD/svg10.dtd">
<svg version="1.0" xmlns="http://www.w3.org/2000/svg"
 width="512.000000pt" height="512.000000pt" viewBox="0 0 512.000000 512.000000"
 preserveAspectRatio="xMidYMid meet">

<g transform="translate(0.000000,512.000000) scale(0.100000,-0.100000)"
fill="#000000" stroke="none">
<path d="M2380 5114 c-19 -2 -73 -9 -120 -15 -923 -113 -1702 -803 -1935
-1713 -71 -278 -70 -255 -70 -1301 0 -976 0 -979 42 -1135 103 -386 365 -701
728 -877 156 -75 292 -89 427 -45 161 53 289 191 333 357 13 51 15 178 15 907
0 578 -3 864 -11 900 -60 286 -367 468 -644 381 -139 -44 -316 -150 -437 -260
-62 -57 -73 -64 -77 -48 -2 11 -1 182 2 380 6 386 15 473 71 681 158 582 609
1075 1179 1288 232 87 413 118 677 118 200 0 328 -15 487 -57 335 -89 625
-256 873 -505 294 -294 465 -625 541 -1050 17 -97 22 -172 26 -475 3 -198 4
-369 2 -380 -4 -16 -15 -9 -77 48 -121 110 -298 216 -437 260 -128 40 -260 27
-385 -39 -125 -65 -231 -205 -259 -342 -8 -36 -11 -322 -11 -899 0 -936 -2
-908 65 -1028 86 -155 266 -265 435 -265 201 0 506 171 699 390 177 201 280
412 332 685 11 56 14 261 14 1010 0 1046 1 1023 -70 1301 -230 898 -971 1565
-1895 1709 -100 15 -445 28 -520 19z m-995 -2944 l30 -30 3 -826 c3 -905 5
-870 -56 -910 -45 -30 -100 -23 -193 23 -242 120 -434 360 -506 630 -22 83
-26 120 -26 238 0 156 13 227 65 360 85 218 249 401 452 507 126 65 172 67
231 8z m2581 -9 c203 -105 367 -289 452 -506 52 -133 65 -204 65 -360 0 -118
-4 -155 -26 -238 -54 -204 -175 -390 -337 -520 -107 -86 -237 -152 -296 -151
-55 1 -100 34 -114 82 -8 25 -10 293 -8 854 l3 817 30 31 c56 59 105 57 231
-9z"/>
</g>
</svg>
