<?xml version="1.0" standalone="no"?>
<!DOCTYPE svg PUBLIC "-//W3C//DTD SVG 20010904//EN"
 "http://www.w3.org/TR/2001/REC-SVG-20010904/DTD/svg10.dtd">
<svg version="1.0" xmlns="http://www.w3.org/2000/svg"
 width="512.000000pt" height="512.000000pt" viewBox="0 0 512.000000 512.000000"
 preserveAspectRatio="xMidYMid meet">

<g transform="translate(0.000000,512.000000) scale(0.100000,-0.100000)"
fill="#000000" stroke="none">
<path d="M2403 4990 c-154 -45 -99 5 -1277 -1169 -753 -752 -1094 -1098 -1107
-1126 -54 -115 26 -261 150 -273 95 -9 115 1 227 110 l103 100 4 -933 c3
-1038 -1 -967 72 -1126 124 -269 361 -434 663 -463 139 -13 744 -13 813 0 66
13 116 50 147 110 l22 44 0 833 0 833 350 0 350 0 0 -833 0 -833 23 -44 c30
-60 80 -97 146 -110 69 -13 654 -13 793 0 169 16 300 66 428 165 181 139 293
353 307 584 4 76 2 91 -19 130 -33 64 -86 103 -147 109 -73 7 -113 -4 -159
-43 -47 -41 -66 -87 -80 -198 -18 -140 -97 -251 -222 -311 l-65 -31 -302 -3
-303 -3 0 833 0 834 -22 44 c-31 60 -81 97 -147 110 -32 6 -265 10 -581 10
-316 0 -549 -4 -581 -10 -66 -13 -116 -50 -146 -110 l-23 -44 0 -834 0 -833
-312 3 -313 3 -65 31 c-114 55 -197 162 -220 283 -6 34 -10 444 -10 1130 l0
1076 784 777 c431 428 796 782 811 788 39 15 122 12 158 -5 18 -9 377 -363
799 -788 l768 -772 0 -585 0 -586 23 -44 c12 -24 39 -58 60 -74 36 -29 45 -31
117 -31 72 0 81 2 117 31 21 16 48 50 61 74 22 44 22 50 22 429 l0 384 104
-101 c112 -110 132 -119 227 -110 124 12 203 157 150 273 -26 58 -2107 2152
-2203 2217 -98 68 -204 98 -334 97 -64 0 -120 -7 -161 -19z"/>
</g>
</svg>
