<svg width="268" height="60" viewBox="0 0 268 60" fill="none" xmlns="http://www.w3.org/2000/svg">
<path d="M0.996635 7.82522C0.621326 7.32806 0.342619 6.75643 0.176721 6.14357C0.0108235 5.53071 -0.0389581 4.88885 0.0302817 4.25533C0.0995215 3.6218 0.286399 3.00925 0.58004 2.45331C0.87368 1.89736 1.26821 1.40911 1.74072 1.01695C2.21322 0.624796 2.75426 0.336558 3.33236 0.169001C3.91046 0.00144467 4.51409 -0.0420855 5.10814 0.0409423C5.70218 0.12397 6.27479 0.331899 6.79266 0.652636C7.31053 0.973373 7.76333 1.40052 8.12472 1.90923L20.9358 19.3654C21.0332 19.499 21.1434 19.6381 21.251 19.7608C19.6821 20.0334 18.2028 20.7216 16.9492 21.7621C15.6955 22.8025 14.7078 24.1619 14.0768 25.715C13.9954 25.5644 13.9038 25.4204 13.8026 25.2841L0.996635 7.82522Z" fill="#282828"/>
<path d="M44.8823 51.992C45.2595 52.4883 45.54 53.0595 45.7077 53.6724C45.8754 54.2853 45.9268 54.9276 45.859 55.5618C45.7912 56.1961 45.6055 56.8096 45.3127 57.3668C45.02 57.9239 44.626 58.4134 44.1537 58.8068C43.6815 59.2002 43.1404 59.4896 42.5621 59.6582C41.9837 59.8269 41.3796 59.8713 40.7849 59.7889C40.1903 59.7065 39.617 59.499 39.0984 59.1784C38.5799 58.8578 38.1264 58.4306 37.7645 57.9216L24.9534 40.4655C24.7431 40.1734 24.4975 39.912 24.2231 39.6881C25.8286 39.4266 27.3439 38.7304 28.6239 37.6663C29.904 36.6022 30.9057 35.2059 31.5332 33.6112C31.6779 33.9387 31.8567 34.2479 32.0661 34.5331L44.8823 51.992Z" fill="#282828"/>
<path d="M21.579 39.7535C21.3437 39.9618 21.1307 40.1968 20.9436 40.4545L8.13245 57.9106C7.39378 58.9169 6.30988 59.5695 5.11918 59.725C3.92848 59.8805 2.7285 59.5261 1.78326 58.7398C0.838011 57.9535 0.224916 56.7997 0.078841 55.5321C-0.067234 54.2646 0.265683 52.9872 1.00435 51.981L13.8155 34.5249C13.9409 34.3517 14.0547 34.1694 14.1562 33.9794C14.8327 35.5324 15.8701 36.8762 17.1702 37.8837C18.4704 38.8912 19.9904 39.5291 21.5867 39.7372" fill="#282828"/>
<path d="M24.5358 19.8536C24.6844 19.7048 24.8223 19.5444 24.9483 19.3736L37.7594 1.91742C38.1245 1.42009 38.578 1.00417 39.0941 0.693408C39.6101 0.38265 40.1787 0.183141 40.7672 0.106273C41.3557 0.0294042 41.9526 0.0766812 42.524 0.245405C43.0953 0.414128 43.6298 0.700993 44.097 1.08962C44.5642 1.47825 44.955 1.96103 45.2469 2.5104C45.5388 3.05977 45.7262 3.66497 45.7984 4.29144C45.8706 4.91791 45.8262 5.55339 45.6677 6.16159C45.5092 6.76979 45.2398 7.33881 44.8747 7.83614L32.0636 25.2923C31.8773 25.5464 31.7167 25.8206 31.5844 26.1105C31.0023 24.5183 30.05 23.1095 28.8167 22.0161C27.5834 20.9227 26.1095 20.1805 24.5332 19.8591" fill="#282828"/>
<path d="M28.9018 29.91C28.9023 31.1648 28.5532 32.3917 27.8986 33.4354C27.244 34.479 26.3134 35.2926 25.2245 35.7732C24.1355 36.2538 22.9371 36.3798 21.7809 36.1353C20.6247 35.8909 19.5625 35.2868 18.7288 34.3997C17.895 33.5125 17.3272 32.3821 17.097 31.1514C16.8668 29.9207 16.9847 28.6449 17.4357 27.4855C17.8867 26.3261 18.6506 25.3351 19.6307 24.6379C20.6108 23.9406 21.7632 23.5685 22.942 23.5685C24.5222 23.5685 26.0377 24.2365 27.1553 25.4257C28.2729 26.6149 28.9011 28.2278 28.9018 29.91Z" fill="#FF8500"/>
<path d="M84.2064 41.6066C82.5211 41.6066 80.9638 41.3292 79.5344 40.7746C78.1051 40.1986 76.8678 39.3986 75.8224 38.3746C74.7771 37.3506 73.9558 36.1452 73.3584 34.7586C72.7824 33.3719 72.4944 31.8572 72.4944 30.2146C72.4944 28.5719 72.7824 27.0572 73.3584 25.6706C73.9558 24.2839 74.7771 23.0785 75.8224 22.0546C76.8891 21.0305 78.1371 20.2412 79.5664 19.6866C80.9958 19.1105 82.5531 18.8225 84.2384 18.8225C85.8598 18.8225 87.3851 19.0999 88.8144 19.6546C90.2438 20.1879 91.4491 20.9985 92.4304 22.0865L90.9264 23.5905C90.0091 22.6519 88.9958 21.9799 87.8864 21.5746C86.7771 21.1479 85.5824 20.9345 84.3024 20.9345C82.9584 20.9345 81.7104 21.1692 80.5584 21.6385C79.4064 22.0866 78.4038 22.7372 77.5504 23.5905C76.6971 24.4226 76.0251 25.4039 75.5344 26.5345C75.0651 27.6439 74.8304 28.8706 74.8304 30.2146C74.8304 31.5586 75.0651 32.7959 75.5344 33.9266C76.0251 35.0359 76.6971 36.0172 77.5504 36.8706C78.4038 37.7026 79.4064 38.3532 80.5584 38.8226C81.7104 39.2706 82.9584 39.4946 84.3024 39.4946C85.5824 39.4946 86.7771 39.2812 87.8864 38.8546C88.9958 38.4279 90.0091 37.7452 90.9264 36.8066L92.4304 38.3106C91.4491 39.3986 90.2438 40.2199 88.8144 40.7746C87.3851 41.3292 85.8491 41.6066 84.2064 41.6066ZM103.736 41.5746C102.115 41.5746 100.654 41.2119 99.3524 40.4866C98.0724 39.7399 97.0591 38.7266 96.3124 37.4466C95.5658 36.1452 95.1924 34.6626 95.1924 32.9986C95.1924 31.3132 95.5658 29.8306 96.3124 28.5506C97.0591 27.2706 98.0724 26.2679 99.3524 25.5426C100.632 24.8172 102.094 24.4545 103.736 24.4545C105.4 24.4545 106.872 24.8172 108.152 25.5426C109.454 26.2679 110.467 27.2706 111.192 28.5506C111.939 29.8306 112.312 31.3132 112.312 32.9986C112.312 34.6626 111.939 36.1452 111.192 37.4466C110.467 38.7266 109.454 39.7399 108.152 40.4866C106.851 41.2119 105.379 41.5746 103.736 41.5746ZM103.736 39.5586C104.952 39.5586 106.03 39.2919 106.968 38.7586C107.907 38.2039 108.643 37.4359 109.176 36.4546C109.731 35.4519 110.008 34.2999 110.008 32.9986C110.008 31.6759 109.731 30.5239 109.176 29.5426C108.643 28.5612 107.907 27.8039 106.968 27.2705C106.03 26.7159 104.963 26.4385 103.768 26.4385C102.574 26.4385 101.507 26.7159 100.568 27.2705C99.6298 27.8039 98.8831 28.5612 98.3284 29.5426C97.7738 30.5239 97.4964 31.6759 97.4964 32.9986C97.4964 34.2999 97.7738 35.4519 98.3284 36.4546C98.8831 37.4359 99.6298 38.2039 100.568 38.7586C101.507 39.2919 102.563 39.5586 103.736 39.5586ZM138.583 24.4545C139.948 24.4545 141.132 24.7212 142.135 25.2546C143.159 25.7666 143.948 26.5559 144.503 27.6226C145.079 28.6892 145.367 30.0332 145.367 31.6546V41.4146H143.095V31.8786C143.095 30.1079 142.668 28.7746 141.815 27.8786C140.983 26.9612 139.799 26.5026 138.263 26.5026C137.111 26.5026 136.108 26.7479 135.255 27.2386C134.423 27.7079 133.772 28.4012 133.303 29.3186C132.855 30.2146 132.631 31.3025 132.631 32.5826V41.4146H130.359V31.8786C130.359 30.1079 129.932 28.7746 129.079 27.8786C128.226 26.9612 127.031 26.5026 125.495 26.5026C124.364 26.5026 123.372 26.7479 122.519 27.2386C121.666 27.7079 121.004 28.4012 120.535 29.3186C120.087 30.2146 119.863 31.3025 119.863 32.5826V41.4146H117.591V24.6145H119.767V29.1586L119.415 28.3586C119.927 27.1425 120.748 26.1932 121.879 25.5106C123.031 24.8066 124.386 24.4545 125.943 24.4545C127.586 24.4545 128.983 24.8705 130.135 25.7025C131.287 26.5132 132.034 27.7399 132.375 29.3826L131.479 29.0306C131.97 27.6652 132.834 26.5665 134.071 25.7346C135.33 24.8812 136.834 24.4545 138.583 24.4545ZM173.16 24.4545C174.526 24.4545 175.71 24.7212 176.712 25.2546C177.736 25.7666 178.526 26.5559 179.08 27.6226C179.656 28.6892 179.944 30.0332 179.944 31.6546V41.4146H177.672V31.8786C177.672 30.1079 177.246 28.7746 176.392 27.8786C175.56 26.9612 174.376 26.5026 172.84 26.5026C171.688 26.5026 170.686 26.7479 169.832 27.2386C169 27.7079 168.35 28.4012 167.88 29.3186C167.432 30.2146 167.208 31.3025 167.208 32.5826V41.4146H164.936V31.8786C164.936 30.1079 164.51 28.7746 163.656 27.8786C162.803 26.9612 161.608 26.5026 160.072 26.5026C158.942 26.5026 157.95 26.7479 157.096 27.2386C156.243 27.7079 155.582 28.4012 155.112 29.3186C154.664 30.2146 154.44 31.3025 154.44 32.5826V41.4146H152.168V24.6145H154.344V29.1586L153.992 28.3586C154.504 27.1425 155.326 26.1932 156.456 25.5106C157.608 24.8066 158.963 24.4545 160.52 24.4545C162.163 24.4545 163.56 24.8705 164.712 25.7025C165.864 26.5132 166.611 27.7399 166.952 29.3826L166.056 29.0306C166.547 27.6652 167.411 26.5665 168.648 25.7346C169.907 24.8812 171.411 24.4545 173.16 24.4545ZM193.69 41.5746C192.261 41.5746 191.013 41.3079 189.946 40.7746C188.879 40.2412 188.047 39.4412 187.45 38.3746C186.874 37.3079 186.586 35.9746 186.586 34.3746V24.6145H188.858V34.1186C188.858 35.9106 189.295 37.2652 190.17 38.1826C191.066 39.0786 192.314 39.5266 193.914 39.5266C195.087 39.5266 196.101 39.2919 196.954 38.8226C197.829 38.3319 198.49 37.6279 198.938 36.7106C199.407 35.7932 199.642 34.6946 199.642 33.4146V24.6145H201.914V41.4146H199.738V36.8066L200.09 37.6386C199.557 38.8759 198.725 39.8466 197.594 40.5506C196.485 41.2332 195.183 41.5746 193.69 41.5746ZM217.462 24.4545C218.827 24.4545 220.022 24.7212 221.046 25.2546C222.091 25.7666 222.902 26.5559 223.478 27.6226C224.075 28.6892 224.374 30.0332 224.374 31.6546V41.4146H222.102V31.8786C222.102 30.1079 221.654 28.7746 220.758 27.8786C219.883 26.9612 218.646 26.5026 217.046 26.5026C215.851 26.5026 214.806 26.7479 213.91 27.2386C213.035 27.7079 212.353 28.4012 211.862 29.3186C211.393 30.2146 211.158 31.3025 211.158 32.5826V41.4146H208.886V24.6145H211.062V29.2226L210.71 28.3586C211.243 27.1425 212.097 26.1932 213.27 25.5106C214.443 24.8066 215.841 24.4545 217.462 24.4545ZM231.151 41.4146V24.6145H233.423V41.4146H231.151ZM232.303 20.9025C231.834 20.9025 231.439 20.7425 231.119 20.4226C230.799 20.1026 230.639 19.7186 230.639 19.2705C230.639 18.8225 230.799 18.4492 231.119 18.1505C231.439 17.8305 231.834 17.6705 232.303 17.6705C232.772 17.6705 233.167 17.8199 233.487 18.1185C233.807 18.4172 233.967 18.7905 233.967 19.2386C233.967 19.7079 233.807 20.1026 233.487 20.4226C233.188 20.7425 232.794 20.9025 232.303 20.9025ZM245.697 41.5746C244.118 41.5746 242.902 41.1479 242.049 40.2946C241.195 39.4412 240.769 38.2359 240.769 36.6786V20.9025H243.041V36.5506C243.041 37.5319 243.286 38.2892 243.777 38.8226C244.289 39.3559 245.014 39.6226 245.953 39.6226C246.955 39.6226 247.787 39.3346 248.449 38.7586L249.249 40.3906C248.801 40.7959 248.257 41.0946 247.617 41.2866C246.998 41.4786 246.358 41.5746 245.697 41.5746ZM237.761 26.5026V24.6145H248.161V26.5026H237.761ZM253.84 47.7826C253.051 47.7826 252.294 47.6546 251.568 47.3986C250.864 47.1426 250.256 46.7586 249.744 46.2466L250.8 44.5506C251.227 44.9559 251.686 45.2652 252.176 45.4786C252.688 45.7132 253.254 45.8306 253.872 45.8306C254.619 45.8306 255.259 45.6172 255.792 45.1906C256.347 44.7852 256.87 44.0599 257.36 43.0146L258.448 40.5506L258.704 40.1986L265.616 24.6145H267.856L259.44 43.4306C258.971 44.5186 258.448 45.3826 257.872 46.0226C257.318 46.6626 256.71 47.1106 256.048 47.3666C255.387 47.6439 254.651 47.7826 253.84 47.7826ZM258.32 41.8946L250.576 24.6145H252.944L259.792 40.0386L258.32 41.8946Z" fill="#282828"/>
</svg>
