<?xml version="1.0" standalone="no"?>
<!DOCTYPE svg PUBLIC "-//W3C//DTD SVG 20010904//EN"
 "http://www.w3.org/TR/2001/REC-SVG-20010904/DTD/svg10.dtd">
<svg version="1.0" xmlns="http://www.w3.org/2000/svg"
 width="512.000000pt" height="512.000000pt" viewBox="0 0 512.000000 512.000000"
 preserveAspectRatio="xMidYMid meet">

<g transform="translate(0.000000,512.000000) scale(0.100000,-0.100000)"
fill="#000000" stroke="none">
<path d="M2720 4839 c-14 -5 -36 -20 -48 -32 -53 -49 -52 -42 -52 -549 l0
-474 -123 -11 c-554 -54 -1093 -329 -1451 -743 -494 -570 -739 -1338 -772
-2425 -6 -196 -5 -201 18 -245 42 -82 149 -113 217 -62 14 10 64 73 111 140
530 752 1126 1269 1685 1458 127 43 156 61 179 108 32 68 16 139 -44 189 -53
45 -88 45 -226 -1 -289 -96 -584 -267 -894 -520 -137 -112 -490 -465 -614
-614 -54 -65 -100 -118 -102 -118 -13 0 43 406 81 596 222 1092 824 1759 1730
1914 39 7 144 15 235 19 185 7 217 17 255 81 19 33 20 56 25 414 l5 379 763
-678 c420 -373 759 -682 755 -686 -4 -4 -348 -309 -763 -678 l-755 -671 -5
273 c-6 312 -8 323 -90 365 -75 39 -146 18 -198 -58 l-23 -34 3 -477 c3 -468
3 -478 24 -506 31 -41 77 -65 129 -65 27 0 57 8 74 19 15 10 465 407 999 882
635 564 976 875 986 896 20 41 20 76 2 120 -10 24 -281 271 -990 900 -536 477
-984 874 -995 881 -26 19 -100 26 -131 13z"/>
</g>
</svg>
