<?xml version="1.0" standalone="no"?>
<!DOCTYPE svg PUBLIC "-//W3C//DTD SVG 20010904//EN"
 "http://www.w3.org/TR/2001/REC-SVG-20010904/DTD/svg10.dtd">
<svg version="1.0" xmlns="http://www.w3.org/2000/svg"
 width="512.000000pt" height="512.000000pt" viewBox="0 0 512.000000 512.000000"
 preserveAspectRatio="xMidYMid meet">

<g transform="translate(0.000000,512.000000) scale(0.100000,-0.100000)"
fill="#000000" stroke="none">
<path d="M2495 4306 c-41 -18 -83 -69 -90 -109 -3 -18 -5 -406 -3 -864 3 -822
3 -832 24 -859 39 -53 71 -69 134 -69 63 0 95 16 134 69 21 27 21 34 21 886 0
852 0 859 -21 886 -11 15 -32 37 -46 47 -33 25 -113 32 -153 13z"/>
<path d="M1735 4120 c-239 -127 -474 -337 -623 -557 -355 -526 -405 -1187
-133 -1755 242 -505 721 -868 1281 -970 137 -25 427 -30 555 -10 386 62 710
227 985 502 262 261 424 568 492 928 26 141 32 447 9 572 -37 212 -93 380
-187 559 -82 159 -174 282 -314 421 -135 135 -257 227 -402 304 -81 42 -98 48
-139 44 -120 -12 -183 -140 -120 -245 12 -19 55 -50 119 -86 379 -215 633
-567 719 -994 27 -135 24 -415 -5 -550 -63 -289 -188 -519 -397 -729 -210
-211 -458 -342 -755 -400 -139 -27 -399 -25 -537 4 -921 196 -1413 1169 -1022
2019 36 80 126 227 176 288 54 66 192 199 258 249 39 29 108 75 155 101 47 27
96 58 108 69 103 91 44 260 -95 273 -42 4 -58 0 -128 -37z"/>
</g>
</svg>
